<svg width="65" height="28" viewBox="0 0 65 28" fill="none" xmlns="http://www.w3.org/2000/svg">
<path id="BG" d="M1.16992 14C1.16992 10.2385 1.17609 8.47636 1.63488 7.06434C2.5746 4.17218 4.8421 1.90468 7.73426 0.964963C9.14629 0.506169 10.9084 0.5 14.6699 0.5H50.6699C54.4314 0.5 56.1936 0.506169 57.6056 0.964963C60.4977 1.90468 62.7652 4.17218 63.705 7.06434C64.1638 8.47636 64.1699 10.2385 64.1699 14C64.1699 17.7615 64.1638 19.5236 63.705 20.9357C62.7652 23.8278 60.4977 26.0953 57.6056 27.035C56.1936 27.4938 54.4314 27.5 50.6699 27.5H14.7876C10.9466 27.5 9.14608 27.4938 7.73426 27.035C4.8421 26.0953 2.5746 23.8278 1.63488 20.9357C1.17609 19.5236 1.16992 17.7615 1.16992 14Z" stroke="#808195" stroke-opacity="0.3"/>
</svg>
