<svg width="41" height="28" viewBox="0 0 41 28" fill="none" xmlns="http://www.w3.org/2000/svg">
<path id="BG" d="M0.669922 14C0.669922 10.2774 0.669922 8.41616 1.15936 6.90983C2.14854 3.86545 4.53537 1.47861 7.57975 0.489435C9.08608 0 10.9474 0 14.6699 0H26.6699C30.3925 0 32.2538 0 33.7601 0.489435C36.8045 1.47861 39.1913 3.86545 40.1805 6.90983C40.6699 8.41616 40.6699 10.2774 40.6699 14C40.6699 17.7226 40.6699 19.5838 40.1805 21.0902C39.1913 24.1346 36.8045 26.5214 33.7601 27.5106C32.2538 28 30.3925 28 26.6699 28H9.49345C4.62035 28 0.669922 24.0496 0.669922 19.1765V14Z" fill="#0CAF60"/>
</svg>
