<svg width="33" height="33" viewBox="0 0 33 33" fill="none" xmlns="http://www.w3.org/2000/svg">
<g id="eth">
<path id="Ellipse 2572" d="M16.834 32.4097C25.6705 32.4097 32.834 25.2462 32.834 16.4097C32.834 7.57311 25.6705 0.409668 16.834 0.409668C7.99743 0.409668 0.833984 7.57311 0.833984 16.4097C0.833984 25.2462 7.99743 32.4097 16.834 32.4097Z" fill="#627EEA"/>
<g id="Group 19796">
<path id="Path 57463" d="M17.334 4.40967V13.2797L24.834 16.6297L17.334 4.40967Z" fill="white" fill-opacity="0.6"/>
<path id="Path 57464" d="M17.334 4.40967L9.83398 16.6297L17.334 13.2797V4.40967Z" fill="white"/>
<path id="Path 57465" d="M17.334 22.3776V28.4096L24.834 18.0256L17.334 22.3776Z" fill="white" fill-opacity="0.6"/>
<path id="Path 57466" d="M17.334 28.4096V22.3766L9.83398 18.0256L17.334 28.4096Z" fill="white"/>
<path id="Path 57467" d="M17.334 20.9827L24.834 16.6297L17.334 13.2817V20.9827Z" fill="white" fill-opacity="0.2"/>
<path id="Path 57468" d="M9.83398 16.6297L17.334 20.9827V13.2827L9.83398 16.6297Z" fill="white" fill-opacity="0.6"/>
</g>
</g>
</svg>
