<svg width="16" height="16" viewBox="0 0 16 16" fill="none" xmlns="http://www.w3.org/2000/svg">
<g id="Frame" clip-path="url(#clip0_1289_6271)">
<path id="Vector" d="M8.00065 14.6668C4.31865 14.6668 1.33398 11.6822 1.33398 8.00016C1.33398 4.31816 4.31865 1.3335 8.00065 1.3335C11.6827 1.3335 14.6673 4.31816 14.6673 8.00016C14.6673 11.6822 11.6827 14.6668 8.00065 14.6668ZM8.00065 13.3335C9.41514 13.3335 10.7717 12.7716 11.7719 11.7714C12.7721 10.7712 13.334 9.41465 13.334 8.00016C13.334 6.58567 12.7721 5.22912 11.7719 4.22893C10.7717 3.22873 9.41514 2.66683 8.00065 2.66683C6.58616 2.66683 5.22961 3.22873 4.22941 4.22893C3.22922 5.22912 2.66732 6.58567 2.66732 8.00016C2.66732 9.41465 3.22922 10.7712 4.22941 11.7714C5.22961 12.7716 6.58616 13.3335 8.00065 13.3335ZM8.00065 7.0575L9.88598 5.1715L10.8293 6.11483L8.94332 8.00016L10.8293 9.8855L9.88598 10.8288L8.00065 8.94283L6.11532 10.8288L5.17198 9.8855L7.05798 8.00016L5.17198 6.11483L6.11532 5.1715L8.00065 7.0575Z" fill="#A4A8AB"/>
</g>
<defs>
<clipPath id="clip0_1289_6271">
<rect width="16" height="16" fill="white"/>
</clipPath>
</defs>
</svg>
