<svg width="28" height="27" viewBox="0 0 28 27" fill="none" xmlns="http://www.w3.org/2000/svg">
<g id="eth">
<path id="Ellipse 2572" d="M14 27C21.4558 27 27.5 20.9558 27.5 13.5C27.5 6.04416 21.4558 0 14 0C6.54416 0 0.5 6.04416 0.5 13.5C0.5 20.9558 6.54416 27 14 27Z" fill="#627EEA"/>
<g id="Group 19796">
<path id="Path 57463" d="M14.4219 3.375V10.8591L20.75 13.6856L14.4219 3.375Z" fill="white" fill-opacity="0.6"/>
<path id="Path 57464" d="M14.4219 3.375L8.09375 13.6856L14.4219 10.8591V3.375Z" fill="white"/>
<path id="Path 57465" d="M14.4219 18.5353V23.6248L20.75 14.8633L14.4219 18.5353Z" fill="white" fill-opacity="0.6"/>
<path id="Path 57466" d="M14.4219 23.6248V18.5344L8.09375 14.8633L14.4219 23.6248Z" fill="white"/>
<path id="Path 57467" d="M14.4219 17.3586L20.75 13.6857L14.4219 10.8608V17.3586Z" fill="white" fill-opacity="0.2"/>
<path id="Path 57468" d="M8.09375 13.6858L14.4219 17.3587V10.8618L8.09375 13.6858Z" fill="white" fill-opacity="0.6"/>
</g>
</g>
</svg>
