<svg width="16" height="13" viewBox="0 0 16 13" fill="none" xmlns="http://www.w3.org/2000/svg">
<g id="Frame" clip-path="url(#clip0_1289_6335)">
<g id="Group">
<path id="Vector" d="M12.1641 3.95136C11.8906 3.79614 11.5391 3.79614 11.2266 3.95136L9.03906 5.23196L7.55469 6.04688L5.40625 7.32748C5.13281 7.4827 4.78125 7.4827 4.46875 7.32748L2.78906 6.31852C2.51562 6.1633 2.32031 5.85285 2.32031 5.5036V3.5633C2.32031 3.25285 2.47656 2.94241 2.78906 2.74838L4.46875 1.77823C4.74219 1.623 5.09375 1.623 5.40625 1.77823L7.08594 2.78718C7.35937 2.9424 7.55469 3.25285 7.55469 3.60211V4.8827L9.03906 4.02897V2.70957C9.03906 2.39912 8.88281 2.08867 8.57031 1.89464L5.44531 0.0707636C5.17187 -0.0844603 4.82031 -0.0844603 4.50781 0.0707636L1.30469 1.93345C0.992188 2.08867 0.835938 2.39912 0.835938 2.70957V6.35733C0.835938 6.66778 0.992188 6.97823 1.30469 7.17226L4.46875 8.99614C4.74219 9.15136 5.09375 9.15136 5.40625 8.99614L7.55469 7.75435L9.03906 6.90061L11.1875 5.65882C11.4609 5.5036 11.8125 5.5036 12.125 5.65882L13.8047 6.62897C14.0781 6.7842 14.2734 7.09464 14.2734 7.4439V9.3842C14.2734 9.69464 14.1172 10.0051 13.8047 10.1991L12.1641 11.1693C11.8906 11.3245 11.5391 11.3245 11.2266 11.1693L9.54687 10.1991C9.27344 10.0439 9.07812 9.73345 9.07812 9.3842V8.1424L7.59375 8.99614V10.2767C7.59375 10.5872 7.75 10.8976 8.0625 11.0917L11.2266 12.9155C11.5 13.0708 11.8516 13.0708 12.1641 12.9155L15.3281 11.0917C15.6016 10.9364 15.7969 10.626 15.7969 10.2767V6.59017C15.7969 6.27972 15.6406 5.96927 15.3281 5.77524L12.1641 3.95136Z" fill="white"/>
</g>
</g>
<defs>
<clipPath id="clip0_1289_6335">
<rect width="15" height="13" fill="white" transform="translate(0.835938 -0.00683594)"/>
</clipPath>
</defs>
</svg>
