<svg width="217" height="16" viewBox="0 0 217 16" fill="none" xmlns="http://www.w3.org/2000/svg">
<g id="Slider">
<path id="Line 94" d="M215 7.99998L6 8" stroke="#212A36" stroke-width="4" stroke-linecap="round"/>
<path id="Line 95" d="M168 8.00001L42 8" stroke="#0CAF60" stroke-width="3" stroke-linecap="round"/>
<path id="Vector" d="M42 14C45.3137 14 48 11.3137 48 8C48 4.68629 45.3137 2 42 2C38.6863 2 36 4.68629 36 8C36 11.3137 38.6863 14 42 14Z" fill="#161D26" stroke="#0CAF60" stroke-width="4"/>
<path id="Vector_2" d="M176 14C179.314 14 182 11.3137 182 8C182 4.68629 179.314 2 176 2C172.686 2 170 4.68629 170 8C170 11.3137 172.686 14 176 14Z" fill="#161D26" stroke="#0CAF60" stroke-width="4"/>
<path id="Ellipse 1351" d="M6 14C9.31371 14 12 11.3137 12 8C12 4.68629 9.31371 2 6 2C2.68629 2 0 4.68629 0 8C0 11.3137 2.68629 14 6 14Z" fill="#212A36"/>
</g>
</svg>
